<?xml version="1.0" standalone="no"?>
<!DOCTYPE svg PUBLIC "-//W3C//DTD SVG 20010904//EN"
 "http://www.w3.org/TR/2001/REC-SVG-20010904/DTD/svg10.dtd">
<svg version="1.0" xmlns="http://www.w3.org/2000/svg"
 width="2437.000000pt" height="2437.000000pt" viewBox="0 0 2437.000000 2437.000000"
 preserveAspectRatio="xMidYMid meet">
<metadata>
Created by potrace 1.11, written by Peter Selinger 2001-2013
</metadata>
<g transform="translate(0.000000,2437.000000) scale(0.100000,-0.100000)"
fill="#000000" stroke="none">
<path d="M12042 24338 c-42 -70 -413 -737 -569 -1023 -315 -578 -597 -1161
-811 -1678 -312 -750 -585 -1700 -766 -2662 -68 -360 -127 -839 -147 -1186
-13 -233 -7 -885 10 -1074 42 -460 130 -845 332 -1461 127 -387 245 -708 586
-1589 301 -779 348 -910 503 -1415 137 -446 213 -772 290 -1245 79 -484 103
-791 103 -1305 -1 -612 -38 -1239 -104 -1750 -116 -903 -267 -1662 -500 -2515
-137 -498 -440 -1420 -649 -1970 -171 -450 -405 -1027 -628 -1545 -236 -549
-283 -654 -611 -1374 l-250 -549 937 7 c515 3 2043 9 3395 12 1351 4 2457 9
2457 11 0 3 -103 210 -228 461 -812 1625 -1285 2701 -1707 3887 -473 1332
-796 2714 -920 3950 -56 562 -75 944 -75 1570 0 507 8 722 41 1080 61 669 146
1068 369 1735 151 452 184 538 675 1735 227 554 317 800 446 1217 179 580 227
870 236 1410 9 588 -24 994 -143 1708 -133 806 -319 1538 -602 2370 -115 337
-329 866 -502 1241 -139 301 -453 898 -598 1139 -107 178 -512 800 -542 833
-4 5 -16 -6 -28 -25z m260 -4673 c100 -163 195 -317 210 -343 25 -43 30 -47
65 -47 34 1 119 9 198 20 17 3 68 9 115 15 47 6 101 13 120 16 19 3 49 7 65 9
17 2 88 11 158 20 71 10 130 15 133 12 3 -3 1 -13 -5 -24 -5 -10 -68 -184
-140 -387 l-131 -368 48 -47 c27 -25 157 -152 291 -281 133 -129 248 -238 254
-242 14 -9 37 0 -410 -149 l-373 -124 -5 -40 c-5 -40 -10 -90 -20 -200 -3 -33
-10 -103 -15 -155 -9 -91 -14 -140 -25 -267 -9 -101 -17 -158 -21 -162 -2 -2
-28 12 -56 31 -29 20 -185 120 -346 222 l-292 187 -38 -23 c-35 -21 -143 -91
-540 -349 -64 -43 -118 -76 -119 -75 -2 1 -12 92 -23 202 -12 109 -23 219 -26
244 -2 25 -7 68 -10 95 -2 28 -7 61 -9 75 -2 14 -7 63 -11 110 -3 47 -8 88
-10 92 -3 4 -179 64 -392 133 -213 70 -389 129 -392 132 -2 2 67 74 155 160
88 85 222 216 297 290 l136 134 -64 177 c-36 97 -69 186 -75 197 -5 11 -25 65
-45 120 -48 131 -90 245 -100 269 -8 20 -11 20 141 1 17 -2 53 -7 80 -10 28
-3 64 -8 80 -10 17 -2 73 -9 125 -15 126 -14 180 -21 208 -25 13 -2 53 -7 90
-11 37 -3 74 -7 82 -9 12 -1 275 416 417 663 14 23 28 40 33 37 4 -3 91 -138
192 -300z m78 -15835 c117 -190 216 -348 219 -352 3 -4 51 -1 106 7 55 8 123
16 150 20 28 3 61 7 75 9 14 2 48 7 75 11 28 3 64 8 80 11 81 11 329 44 336
44 5 0 -7 -44 -27 -97 -33 -92 -166 -461 -221 -618 l-25 -70 149 -143 c311
-301 445 -434 441 -436 -3 -4 -596 -206 -698 -238 -36 -12 -70 -26 -76 -32 -6
-6 -17 -76 -24 -156 -7 -80 -14 -152 -15 -160 -2 -8 -6 -58 -10 -110 -4 -52
-8 -97 -10 -100 -2 -3 -6 -49 -10 -103 -4 -54 -10 -120 -14 -146 l-6 -49 -349
224 -349 224 -96 -62 c-53 -34 -208 -135 -345 -225 -137 -90 -251 -161 -253
-159 -5 5 -11 40 -18 121 -3 39 -8 89 -10 113 -10 89 -16 138 -20 177 -3 22
-8 65 -10 95 -14 154 -17 190 -25 249 -5 35 -10 64 -12 66 -2 1 -180 61 -396
132 l-393 129 300 292 299 292 -54 143 c-30 78 -65 171 -78 207 -13 36 -37
101 -54 145 -71 190 -102 276 -102 281 0 3 19 2 43 -1 54 -7 91 -12 202 -25
50 -6 101 -13 115 -15 14 -2 50 -6 80 -10 107 -12 208 -24 240 -30 14 -2 52
-7 85 -10 l60 -5 120 200 c66 110 148 246 182 303 35 56 66 109 70 117 10 22
56 91 58 88 1 -2 98 -158 215 -348z"/>
<path d="M17275 14824 c-22 -2 -112 -11 -200 -20 -393 -38 -708 -92 -1070
-184 -318 -80 -544 -178 -786 -339 -198 -132 -283 -204 -494 -415 -292 -293
-442 -483 -628 -796 -346 -580 -536 -1088 -682 -1815 -106 -531 -141 -853
-166 -1522 -32 -849 80 -2090 276 -3053 151 -739 267 -1148 550 -1928 124
-344 185 -493 373 -912 263 -588 389 -831 730 -1415 507 -867 940 -1409 1410
-1764 46 -35 85 -61 88 -59 6 6 -74 188 -125 285 -34 63 -59 145 -135 433
-234 880 -321 1242 -380 1575 -111 623 -142 915 -167 1593 -18 504 20 1175 96
1682 26 174 104 552 157 765 109 437 295 914 487 1250 83 145 257 409 339 514
291 374 638 679 982 864 248 134 444 206 735 271 592 132 1094 108 1660 -79
417 -138 928 -416 1237 -675 188 -157 381 -359 782 -822 70 -82 130 -148 133
-148 7 0 -5 771 -18 1100 -18 482 -66 863 -175 1368 -149 697 -530 1585 -902
2107 -120 169 -204 276 -297 380 -458 512 -886 870 -1425 1190 -495 294 -1036
475 -1640 551 -119 14 -650 27 -745 18z m1166 -1768 c37 3 141 14 169 19 14 3
48 7 75 11 28 3 61 7 75 9 34 5 89 12 185 25 44 5 94 12 110 14 17 2 62 7 100
11 39 4 74 10 79 13 12 7 1 -37 -29 -118 -13 -36 -43 -117 -65 -180 -23 -63
-45 -124 -50 -135 -7 -18 -80 -225 -112 -318 l-13 -39 72 -66 c239 -224 521
-507 510 -513 -6 -3 -184 -63 -393 -133 l-382 -127 -7 -82 c-4 -45 -8 -89 -10
-97 -1 -8 -6 -55 -10 -104 -4 -50 -8 -97 -10 -105 -1 -9 -6 -59 -9 -111 -4
-52 -9 -106 -11 -120 -2 -14 -7 -58 -10 -97 -8 -90 -11 -108 -16 -108 -2 0
-88 54 -192 120 -103 66 -227 145 -275 176 -48 30 -119 76 -158 101 l-71 46
-344 -224 c-189 -123 -346 -220 -350 -216 -4 4 -10 45 -14 92 -3 47 -8 99 -10
115 -2 17 -6 55 -9 85 -3 30 -11 98 -16 150 -6 52 -13 120 -16 150 -2 30 -6
69 -8 85 -3 17 -8 56 -11 88 -4 31 -12 57 -18 57 -6 0 -184 57 -395 126 l-385
126 129 125 c271 262 464 456 464 467 0 6 -65 183 -144 393 -105 281 -139 380
-127 378 9 -1 48 -6 86 -10 39 -4 77 -8 85 -10 8 -1 42 -6 75 -9 61 -7 125
-14 180 -21 17 -2 53 -7 80 -10 28 -3 86 -11 130 -17 44 -5 102 -11 129 -12
l50 -1 193 320 c106 176 202 335 214 354 l20 33 218 -353 c191 -310 222 -354
242 -353z m-3703 -3119 c29 -94 54 -176 56 -182 1 -5 14 -48 28 -95 15 -47 34
-111 43 -143 l16 -57 332 6 c183 3 338 7 345 9 41 14 -18 -32 -265 -205 -153
-107 -280 -195 -282 -196 -1 -2 20 -69 49 -151 28 -81 53 -155 56 -163 2 -8
28 -87 59 -174 30 -88 54 -160 52 -162 -1 -1 -125 89 -276 201 l-273 203 -76
-57 c-83 -62 -295 -218 -352 -260 -19 -14 -37 -27 -40 -30 -14 -16 -72 -52
-76 -48 -4 4 95 304 193 586 l19 54 -103 71 c-367 253 -496 350 -440 331 6 -2
161 -6 343 -9 l332 -6 6 28 c17 67 190 622 195 622 3 0 30 -78 59 -173z"/>
<path d="M6400 14800 c-241 -17 -524 -64 -815 -136 -323 -81 -518 -154 -856
-324 -537 -269 -874 -513 -1294 -934 -368 -370 -651 -759 -860 -1181 -247
-499 -552 -1502 -669 -2200 -92 -543 -139 -1130 -134 -1647 l3 -298 147 158
c615 660 1126 1095 1518 1292 117 59 306 132 485 190 495 158 1091 198 1615
109 215 -36 287 -56 449 -120 427 -171 864 -475 1147 -800 388 -445 639 -920
897 -1700 250 -751 397 -1773 397 -2749 0 -977 -149 -2018 -407 -2850 -86
-279 -244 -688 -347 -900 -55 -112 -55 -116 -3 -79 25 17 66 37 91 43 43 11
52 21 197 206 268 343 597 790 791 1075 400 589 891 1452 1150 2020 151 331
299 682 370 878 288 794 505 1677 602 2447 124 974 126 2460 6 3410 -61 483
-164 957 -294 1350 -255 777 -552 1284 -1031 1766 -323 323 -788 627 -1140
743 -206 68 -532 142 -774 175 -327 46 -963 74 -1241 56z m164 -1312 c87 -142
161 -260 164 -262 4 -2 50 2 102 9 166 22 189 25 238 31 26 3 58 7 72 9 14 2
45 7 70 10 25 3 110 14 190 24 80 11 146 18 148 17 1 -2 -60 -178 -137 -392
l-140 -389 72 -69 c72 -69 206 -198 414 -399 92 -88 109 -109 95 -116 -9 -4
-183 -64 -387 -131 -203 -68 -373 -126 -377 -129 -9 -8 -15 -46 -23 -141 -3
-41 -8 -91 -10 -110 -2 -19 -6 -66 -10 -105 -3 -38 -8 -90 -10 -115 -3 -25 -7
-65 -9 -90 -3 -25 -8 -81 -12 -125 -3 -44 -8 -91 -9 -105 -2 -14 -4 -29 -4
-33 -1 -4 -25 8 -53 26 -29 19 -187 121 -351 227 l-297 192 -213 -140 c-371
-244 -479 -313 -482 -310 -3 3 -6 36 -20 178 -7 78 -17 169 -20 195 -2 17 -6
57 -10 90 -7 70 -14 134 -20 190 -2 22 -7 67 -10 100 -4 33 -9 63 -13 66 -4 4
-181 64 -394 134 -214 69 -388 127 -388 129 0 3 228 228 433 428 l159 154
-112 299 c-61 165 -126 341 -144 392 l-34 91 32 -4 c17 -2 51 -6 76 -9 46 -5
360 -43 415 -50 17 -2 57 -6 90 -10 33 -4 71 -8 85 -10 134 -18 125 -19 147
17 11 18 71 116 133 218 62 102 135 223 163 270 28 47 66 109 85 138 l34 53
57 -93 c31 -51 128 -209 215 -350z"/>
</g>
</svg>
